<svg xmlns="http://www.w3.org/2000/svg" viewBox="0 0 1600 1000" role="img" aria-labelledby="t d">
  <title id="t">The final tram at the terminus</title><desc id="d">A supplied night landscape with a tram beneath overhead wires.</desc>
  <rect width="1600" height="1000" fill="#0d1128"/><circle cx="1260" cy="190" r="95" fill="#f0a53a"/><path d="M0 620q360-90 770 20t830-10v370H0z" fill="#202748"/><g stroke="#8d94b5" stroke-width="5"><path d="M0 190 1600 420M180 0l320 700M1420 0l-350 700"/></g><g transform="translate(440 490)"><path d="M0 90 560 0l130 330H40z" fill="#d8d0bc" stroke="#080b17" stroke-width="14"/><path d="m85 112 165-28v125l-155 20zm225-38 175-28 55 122-225 36z" fill="#171d3b"/><circle cx="155" cy="320" r="48"/><circle cx="570" cy="300" r="48"/><circle cx="635" cy="235" r="25" fill="#ffd878"/></g><path d="M0 860h1600" stroke="#e6593f" stroke-width="18"/>
</svg>
